<svg width="694" height="315" viewBox="0 0 694 315" fill="none" xmlns="http://www.w3.org/2000/svg">
<path opacity="0.28" d="M684.6 314.1H9C4 314.1 0 310.1 0 305.1C0 300.1 4 296.1 9 296.1H684.7C689.7 296.1 693.7 300.1 693.7 305.1C693.6 310.1 689.6 314.1 684.6 314.1Z" fill="#848484"/>
<path d="M655.299 221.7C655.299 184.5 627.099 153.9 590.599 150.4V142H568.699V302.7H590.599V293C626.999 289.5 655.299 258.9 655.299 221.7ZM590.499 269.9V173.6C613.899 177 632.299 197.3 632.299 221.8C632.299 246.2 613.899 266.5 590.499 269.9Z" fill="#F09F54"/>
<path opacity="0.29" d="M590.5 150.4V142H568.6V302.7H590.5V293C627 289.5 655.2 259 655.2 221.7C655.3 184.5 627 153.9 590.5 150.4ZM590.5 285.6V293.9H570V149.3H590.5V157.8C622.6 160.9 648.5 188.3 648.5 221.7C648.6 255.1 622.7 282.5 590.5 285.6Z" fill="#F09F54"/>
<path d="M655.299 221.7C655.299 184.5 627.099 153.9 590.599 150.4V142H568.699V302.7H590.599V293C626.999 289.5 655.299 258.9 655.299 221.7ZM590.499 269.9V173.6C613.899 177 632.299 197.3 632.299 221.8C632.299 246.2 613.899 266.5 590.499 269.9Z" stroke="#444E59" stroke-width="4" stroke-miterlimit="10" stroke-linecap="round" stroke-linejoin="round"/>
<path d="M577.4 286.6H568.6" stroke="#444E59" stroke-width="3" stroke-miterlimit="10" stroke-linecap="round" stroke-linejoin="round"/>
<path d="M577.4 270.6H568.6" stroke="#444E59" stroke-width="3" stroke-miterlimit="10" stroke-linecap="round" stroke-linejoin="round"/>
<path d="M577.4 254.5H568.6" stroke="#444E59" stroke-width="3" stroke-miterlimit="10" stroke-linecap="round" stroke-linejoin="round"/>
<path d="M577.4 238.4H568.6" stroke="#444E59" stroke-width="3" stroke-miterlimit="10" stroke-linecap="round" stroke-linejoin="round"/>
<path d="M577.4 222.4H568.6" stroke="#444E59" stroke-width="3" stroke-miterlimit="10" stroke-linecap="round" stroke-linejoin="round"/>
<path d="M577.4 206.299H568.6" stroke="#444E59" stroke-width="3" stroke-miterlimit="10" stroke-linecap="round" stroke-linejoin="round"/>
<path d="M577.4 190.199H568.6" stroke="#444E59" stroke-width="3" stroke-miterlimit="10" stroke-linecap="round" stroke-linejoin="round"/>
<path d="M577.4 174.1H568.6" stroke="#444E59" stroke-width="3" stroke-miterlimit="10" stroke-linecap="round" stroke-linejoin="round"/>
<path d="M577.4 158.1H568.6" stroke="#444E59" stroke-width="3" stroke-miterlimit="10" stroke-linecap="round" stroke-linejoin="round"/>
<path d="M553.2 60.6992H520.1V302.299H553.2V60.6992Z" fill="#F09F54"/>
<path d="M553.2 60.6992H520.1V302.299H553.2V60.6992Z" fill="#F09F54"/>
<path opacity="0.29" d="M553.2 60.6992H538.8V302.299H553.2V60.6992Z" fill="#F09F54"/>
<path d="M553.2 60.6992H520.1V302.299H553.2V60.6992Z" stroke="#444E59" stroke-width="4" stroke-miterlimit="10" stroke-linecap="round" stroke-linejoin="round"/>
<path d="M531.6 277.898H520.1" stroke="#444E59" stroke-width="3" stroke-miterlimit="10" stroke-linecap="round" stroke-linejoin="round"/>
<path d="M527.2 289.398H520.1" stroke="#444E59" stroke-width="3" stroke-miterlimit="10" stroke-linecap="round" stroke-linejoin="round"/>
<path d="M531.6 254.898H520.1" stroke="#444E59" stroke-width="3" stroke-miterlimit="10" stroke-linecap="round" stroke-linejoin="round"/>
<path d="M527.2 266.398H520.1" stroke="#444E59" stroke-width="3" stroke-miterlimit="10" stroke-linecap="round" stroke-linejoin="round"/>
<path d="M531.6 231.898H520.1" stroke="#444E59" stroke-width="3" stroke-miterlimit="10" stroke-linecap="round" stroke-linejoin="round"/>
<path d="M527.2 243.398H520.1" stroke="#444E59" stroke-width="3" stroke-miterlimit="10" stroke-linecap="round" stroke-linejoin="round"/>
<path d="M531.6 208.799H520.1" stroke="#444E59" stroke-width="3" stroke-miterlimit="10" stroke-linecap="round" stroke-linejoin="round"/>
<path d="M527.2 220.299H520.1" stroke="#444E59" stroke-width="3" stroke-miterlimit="10" stroke-linecap="round" stroke-linejoin="round"/>
<path d="M531.6 185.799H520.1" stroke="#444E59" stroke-width="3" stroke-miterlimit="10" stroke-linecap="round" stroke-linejoin="round"/>
<path d="M527.2 197.299H520.1" stroke="#444E59" stroke-width="3" stroke-miterlimit="10" stroke-linecap="round" stroke-linejoin="round"/>
<path d="M531.6 162.799H520.1" stroke="#444E59" stroke-width="3" stroke-miterlimit="10" stroke-linecap="round" stroke-linejoin="round"/>
<path d="M527.2 174.299H520.1" stroke="#444E59" stroke-width="3" stroke-miterlimit="10" stroke-linecap="round" stroke-linejoin="round"/>
<path d="M531.6 139.799H520.1" stroke="#444E59" stroke-width="3" stroke-miterlimit="10" stroke-linecap="round" stroke-linejoin="round"/>
<path d="M527.2 151.299H520.1" stroke="#444E59" stroke-width="3" stroke-miterlimit="10" stroke-linecap="round" stroke-linejoin="round"/>
<path d="M531.6 116.799H520.1" stroke="#444E59" stroke-width="3" stroke-miterlimit="10" stroke-linecap="round" stroke-linejoin="round"/>
<path d="M527.2 128.299H520.1" stroke="#444E59" stroke-width="3" stroke-miterlimit="10" stroke-linecap="round" stroke-linejoin="round"/>
<path d="M531.6 93.7988H520.1" stroke="#444E59" stroke-width="3" stroke-miterlimit="10" stroke-linecap="round" stroke-linejoin="round"/>
<path d="M527.2 105.299H520.1" stroke="#444E59" stroke-width="3" stroke-miterlimit="10" stroke-linecap="round" stroke-linejoin="round"/>
<path d="M531.6 70.7988H520.1" stroke="#444E59" stroke-width="3" stroke-miterlimit="10" stroke-linecap="round" stroke-linejoin="round"/>
<path d="M527.2 82.2988H520.1" stroke="#444E59" stroke-width="3" stroke-miterlimit="10" stroke-linecap="round" stroke-linejoin="round"/>
<path d="M471.8 119.1H458.9V153.2H471.8V119.1Z" fill="#848484"/>
<path opacity="0.25" d="M463.7 119.1H458.9V153.2H463.7V119.1Z" fill="#848484"/>
<path d="M471.8 119.1H458.9V153.2H471.8V119.1Z" stroke="#444E59" stroke-width="4" stroke-miterlimit="10" stroke-linecap="round" stroke-linejoin="round"/>
<path d="M468.3 153.299H462.4V169.799H468.3V153.299Z" fill="white"/>
<path d="M468.3 153.299H462.4V169.799H468.3V153.299Z" stroke="#444E59" stroke-width="4" stroke-miterlimit="10" stroke-linecap="round" stroke-linejoin="round"/>
<path d="M455.4 184.5L425.4 302.2L471 186.1L455.4 184.5Z" fill="white"/>
<path d="M455.4 184.5L425.4 302.2L471 186.1L455.4 184.5Z" stroke="#444E59" stroke-width="4" stroke-miterlimit="10" stroke-linecap="round" stroke-linejoin="round"/>
<path d="M475.4 184.5L505.4 302.2L459.9 186.1L475.4 184.5Z" fill="white"/>
<path d="M475.4 184.5L505.4 302.2L459.9 186.1L475.4 184.5Z" stroke="#444E59" stroke-width="4" stroke-miterlimit="10" stroke-linecap="round" stroke-linejoin="round"/>
<path d="M465.4 207.6C476.446 207.6 485.4 198.645 485.4 187.6C485.4 176.554 476.446 167.6 465.4 167.6C454.355 167.6 445.4 176.554 445.4 187.6C445.4 198.645 454.355 207.6 465.4 207.6Z" fill="#71A850"/>
<path opacity="0.4" d="M451 187.6C451 177.5 458.5 169.2 468.2 167.8C467.3 167.7 466.4 167.6 465.4 167.6C454.4 167.6 445.4 176.6 445.4 187.6C445.4 198.6 454.4 207.6 465.4 207.6C466.3 207.6 467.3 207.5 468.2 207.4C458.5 206 451 197.7 451 187.6Z" fill="#71A850"/>
<path d="M465.4 207.6C476.446 207.6 485.4 198.645 485.4 187.6C485.4 176.554 476.446 167.6 465.4 167.6C454.355 167.6 445.4 176.554 445.4 187.6C445.4 198.645 454.355 207.6 465.4 207.6Z" stroke="#444E59" stroke-width="4" stroke-miterlimit="10" stroke-linecap="round" stroke-linejoin="round"/>
<path d="M465.401 194.399C469.156 194.399 472.201 191.354 472.201 187.599C472.201 183.843 469.156 180.799 465.401 180.799C461.645 180.799 458.601 183.843 458.601 187.599C458.601 191.354 461.645 194.399 465.401 194.399Z" fill="#444E59"/>
<path d="M465.401 194.399C469.156 194.399 472.201 191.354 472.201 187.599C472.201 183.843 469.156 180.799 465.401 180.799C461.645 180.799 458.601 183.843 458.601 187.599C458.601 191.354 461.645 194.399 465.401 194.399Z" stroke="#444E59" stroke-width="4" stroke-miterlimit="10" stroke-linecap="round" stroke-linejoin="round"/>
<path d="M393.2 302H261.2C253.5 302 247.2 295.7 247.2 288V16C247.2 8.3 253.5 2 261.2 2H393.2C400.9 2 407.2 8.3 407.2 16V288C407.2 295.7 400.9 302 393.2 302Z" fill="#848484"/>
<path opacity="0.28" d="M393.2 2H384.8C392.5 2 398.8 8.3 398.8 16V288C398.8 295.7 392.5 302 384.8 302H393.3C401 302 407.3 295.7 407.3 288V16C407.2 8.2 400.9 2 393.2 2Z" fill="#848484"/>
<path opacity="0.48" d="M255.5 288V16C255.5 8.3 261.8 2 269.5 2H261.2C253.5 2 247.2 8.3 247.2 16V288C247.2 295.7 253.5 302 261.2 302H269.5C261.8 302 255.5 295.7 255.5 288Z" fill="#848484"/>
<path d="M393.2 302H261.2C253.5 302 247.2 295.7 247.2 288V16C247.2 8.3 253.5 2 261.2 2H393.2C400.9 2 407.2 8.3 407.2 16V288C407.2 295.7 400.9 302 393.2 302Z" stroke="#444E59" stroke-width="4" stroke-miterlimit="10" stroke-linecap="round" stroke-linejoin="round"/>
<path d="M407.219 263.488L407.219 39.4883L247.219 39.4883L247.219 263.488H407.219Z" fill="#E9FBFF"/>
<path d="M406.4 111.7H393.9C387.1 111.7 381.6 106.2 381.6 99.3996V68.8996C381.6 62.0996 387.1 56.5996 393.9 56.5996H406.4V111.7Z" fill="#C9C9C9"/>
<path d="M256.4 235.3H247.2V138H256.4C263.3 138 268.9 143.6 268.9 150.5V222.8C268.8 229.7 263.3 235.3 256.4 235.3Z" fill="#C9C9C9"/>
<path d="M407.219 263.488L407.219 39.4883L247.219 39.4883L247.219 263.488H407.219Z" stroke="#444E59" stroke-width="4" stroke-miterlimit="10" stroke-linecap="round" stroke-linejoin="round"/>
<path d="M349.2 22H356.2" stroke="#444E59" stroke-width="5" stroke-miterlimit="10" stroke-linecap="round" stroke-linejoin="round"/>
<path d="M298.2 22H338.2" stroke="#444E59" stroke-width="5" stroke-miterlimit="10" stroke-linecap="round" stroke-linejoin="round"/>
<path opacity="0.29" d="M327.2 291.4C333.275 291.4 338.2 286.476 338.2 280.4C338.2 274.325 333.275 269.4 327.2 269.4C321.125 269.4 316.2 274.325 316.2 280.4C316.2 286.476 321.125 291.4 327.2 291.4Z" fill="#848484"/>
<path d="M327.2 288.8C331.839 288.8 335.6 285.039 335.6 280.4C335.6 275.761 331.839 272 327.2 272C322.561 272 318.8 275.761 318.8 280.4C318.8 285.039 322.561 288.8 327.2 288.8Z" fill="#444E59"/>
<g opacity="0.3">
<g opacity="0.3">
<g opacity="0.3">
<path opacity="0.3" d="M290.7 236.699H274.7C270.3 236.699 266.7 233.099 266.7 228.699V212.699C266.7 208.299 270.3 204.699 274.7 204.699H290.7C295.1 204.699 298.7 208.299 298.7 212.699V228.699C298.7 233.099 295.1 236.699 290.7 236.699Z" stroke="#444E59" stroke-width="2" stroke-linecap="round" stroke-linejoin="round" stroke-dasharray="4.08 4.08"/>
</g>
<g opacity="0.3">
<path opacity="0.3" d="M379.2 236.699H363.2C358.8 236.699 355.2 233.099 355.2 228.699V212.699C355.2 208.299 358.8 204.699 363.2 204.699H379.2C383.6 204.699 387.2 208.299 387.2 212.699V228.699C387.2 233.099 383.6 236.699 379.2 236.699Z" stroke="#444E59" stroke-width="2" stroke-linecap="round" stroke-linejoin="round" stroke-dasharray="4.08 4.08"/>
</g>
<g opacity="0.3">
<path opacity="0.3" d="M335.2 236.699H319.2C314.8 236.699 311.2 233.099 311.2 228.699V212.699C311.2 208.299 314.8 204.699 319.2 204.699H335.2C339.6 204.699 343.2 208.299 343.2 212.699V228.699C343.2 233.099 339.6 236.699 335.2 236.699Z" stroke="#444E59" stroke-width="2" stroke-linecap="round" stroke-linejoin="round" stroke-dasharray="4.08 4.08"/>
</g>
</g>
<g opacity="0.3">
<g opacity="0.3">
<path opacity="0.3" d="M290.7 188.699H274.7C270.3 188.699 266.7 185.099 266.7 180.699V164.699C266.7 160.299 270.3 156.699 274.7 156.699H290.7C295.1 156.699 298.7 160.299 298.7 164.699V180.699C298.7 185.099 295.1 188.699 290.7 188.699Z" stroke="#444E59" stroke-width="2" stroke-linecap="round" stroke-linejoin="round" stroke-dasharray="4.08 4.08"/>
</g>
<g opacity="0.3">
<path opacity="0.3" d="M379.2 188.699H363.2C358.8 188.699 355.2 185.099 355.2 180.699V164.699C355.2 160.299 358.8 156.699 363.2 156.699H379.2C383.6 156.699 387.2 160.299 387.2 164.699V180.699C387.2 185.099 383.6 188.699 379.2 188.699Z" stroke="#444E59" stroke-width="2" stroke-linecap="round" stroke-linejoin="round" stroke-dasharray="4.08 4.08"/>
</g>
<g opacity="0.3">
<path opacity="0.3" d="M335.2 188.699H319.2C314.8 188.699 311.2 185.099 311.2 180.699V164.699C311.2 160.299 314.8 156.699 319.2 156.699H335.2C339.6 156.699 343.2 160.299 343.2 164.699V180.699C343.2 185.099 339.6 188.699 335.2 188.699Z" stroke="#444E59" stroke-width="2" stroke-linecap="round" stroke-linejoin="round" stroke-dasharray="4.08 4.08"/>
</g>
</g>
<g opacity="0.3">
<g opacity="0.3">
<path opacity="0.3" d="M290.7 140.699H274.7C270.3 140.699 266.7 137.099 266.7 132.699V116.699C266.7 112.299 270.3 108.699 274.7 108.699H290.7C295.1 108.699 298.7 112.299 298.7 116.699V132.699C298.7 137.099 295.1 140.699 290.7 140.699Z" stroke="#444E59" stroke-width="2" stroke-linecap="round" stroke-linejoin="round" stroke-dasharray="4.08 4.08"/>
</g>
<g opacity="0.3">
<path opacity="0.3" d="M379.2 140.699H363.2C358.8 140.699 355.2 137.099 355.2 132.699V116.699C355.2 112.299 358.8 108.699 363.2 108.699H379.2C383.6 108.699 387.2 112.299 387.2 116.699V132.699C387.2 137.099 383.6 140.699 379.2 140.699Z" stroke="#444E59" stroke-width="2" stroke-linecap="round" stroke-linejoin="round" stroke-dasharray="4.08 4.08"/>
</g>
<g opacity="0.3">
<path opacity="0.3" d="M335.2 140.699H319.2C314.8 140.699 311.2 137.099 311.2 132.699V116.699C311.2 112.299 314.8 108.699 319.2 108.699H335.2C339.6 108.699 343.2 112.299 343.2 116.699V132.699C343.2 137.099 339.6 140.699 335.2 140.699Z" stroke="#444E59" stroke-width="2" stroke-linecap="round" stroke-linejoin="round" stroke-dasharray="4.08 4.08"/>
</g>
</g>
<g opacity="0.3">
<g opacity="0.3">
<path opacity="0.3" d="M290.7 92.6992H274.7C270.3 92.6992 266.7 89.0992 266.7 84.6992V68.6992C266.7 64.2992 270.3 60.6992 274.7 60.6992H290.7C295.1 60.6992 298.7 64.2992 298.7 68.6992V84.6992C298.7 89.0992 295.1 92.6992 290.7 92.6992Z" stroke="#444E59" stroke-width="2" stroke-linecap="round" stroke-linejoin="round" stroke-dasharray="4.08 4.08"/>
</g>
<g opacity="0.3">
<path opacity="0.3" d="M379.2 92.6992H363.2C358.8 92.6992 355.2 89.0992 355.2 84.6992V68.6992C355.2 64.2992 358.8 60.6992 363.2 60.6992H379.2C383.6 60.6992 387.2 64.2992 387.2 68.6992V84.6992C387.2 89.0992 383.6 92.6992 379.2 92.6992Z" stroke="#444E59" stroke-width="2" stroke-linecap="round" stroke-linejoin="round" stroke-dasharray="4.08 4.08"/>
</g>
<g opacity="0.3">
<path opacity="0.3" d="M335.2 92.6992H319.2C314.8 92.6992 311.2 89.0992 311.2 84.6992V68.6992C311.2 64.2992 314.8 60.6992 319.2 60.6992H335.2C339.6 60.6992 343.2 64.2992 343.2 68.6992V84.6992C343.2 89.0992 339.6 92.6992 335.2 92.6992Z" stroke="#444E59" stroke-width="2" stroke-linecap="round" stroke-linejoin="round" stroke-dasharray="4.08 4.08"/>
</g>
</g>
</g>
<path d="M290.7 236.699H274.7C270.3 236.699 266.7 233.099 266.7 228.699V212.699C266.7 208.299 270.3 204.699 274.7 204.699H290.7C295.1 204.699 298.7 208.299 298.7 212.699V228.699C298.7 233.099 295.1 236.699 290.7 236.699Z" fill="#71A850"/>
<path opacity="0.52" d="M290.7 204.699H274.7C271.5 204.699 268.7 206.599 267.5 209.299L298.7 214.899V212.699C298.7 208.299 295.1 204.699 290.7 204.699Z" fill="#5F8C42"/>
<path d="M290.7 236.699H274.7C270.3 236.699 266.7 233.099 266.7 228.699V212.699C266.7 208.299 270.3 204.699 274.7 204.699H290.7C295.1 204.699 298.7 208.299 298.7 212.699V228.699C298.7 233.099 295.1 236.699 290.7 236.699Z" stroke="#444E59" stroke-width="4" stroke-miterlimit="10" stroke-linecap="round" stroke-linejoin="round"/>
<path d="M335.2 236.699H319.2C314.8 236.699 311.2 233.099 311.2 228.699V212.699C311.2 208.299 314.8 204.699 319.2 204.699H335.2C339.6 204.699 343.2 208.299 343.2 212.699V228.699C343.2 233.099 339.6 236.699 335.2 236.699Z" fill="#F09F54"/>
<path opacity="0.52" d="M335.2 204.699H319.2C316 204.699 313.2 206.599 312 209.299L343.2 214.899V212.699C343.2 208.299 339.6 204.699 335.2 204.699Z" fill="#D38444"/>
<path d="M335.2 236.699H319.2C314.8 236.699 311.2 233.099 311.2 228.699V212.699C311.2 208.299 314.8 204.699 319.2 204.699H335.2C339.6 204.699 343.2 208.299 343.2 212.699V228.699C343.2 233.099 339.6 236.699 335.2 236.699Z" stroke="#444E59" stroke-width="4" stroke-miterlimit="10" stroke-linecap="round" stroke-linejoin="round"/>
<path d="M379.2 188.699H363.2C358.8 188.699 355.2 185.099 355.2 180.699V164.699C355.2 160.299 358.8 156.699 363.2 156.699H379.2C383.6 156.699 387.2 160.299 387.2 164.699V180.699C387.2 185.099 383.6 188.699 379.2 188.699Z" fill="#2FA9ED"/>
<path opacity="0.52" d="M379.2 156.699H363.2C360 156.699 357.2 158.599 356 161.299L387.2 166.899V164.699C387.2 160.299 383.6 156.699 379.2 156.699Z" fill="#288FBC"/>
<path d="M379.2 188.699H363.2C358.8 188.699 355.2 185.099 355.2 180.699V164.699C355.2 160.299 358.8 156.699 363.2 156.699H379.2C383.6 156.699 387.2 160.299 387.2 164.699V180.699C387.2 185.099 383.6 188.699 379.2 188.699Z" stroke="#444E59" stroke-width="4" stroke-miterlimit="10" stroke-linecap="round" stroke-linejoin="round"/>
<path d="M335.2 140.699H319.2C314.8 140.699 311.2 137.099 311.2 132.699V116.699C311.2 112.299 314.8 108.699 319.2 108.699H335.2C339.6 108.699 343.2 112.299 343.2 116.699V132.699C343.2 137.099 339.6 140.699 335.2 140.699Z" fill="#E7534E"/>
<path opacity="0.52" d="M335.2 108.699H319.2C316 108.699 313.2 110.599 312 113.299L343.2 118.899V116.699C343.2 112.299 339.6 108.699 335.2 108.699Z" fill="#BF4040"/>
<path d="M335.2 140.699H319.2C314.8 140.699 311.2 137.099 311.2 132.699V116.699C311.2 112.299 314.8 108.699 319.2 108.699H335.2C339.6 108.699 343.2 112.299 343.2 116.699V132.699C343.2 137.099 339.6 140.699 335.2 140.699Z" stroke="#444E59" stroke-width="4" stroke-miterlimit="10" stroke-linecap="round" stroke-linejoin="round"/>
<path d="M368.6 165.701L377.8 171.001C379.1 171.801 379.1 173.701 377.8 174.401L368.6 179.701C367.3 180.501 365.6 179.501 365.6 178.001V167.401C365.6 165.901 367.3 164.901 368.6 165.701Z" fill="white"/>
<path d="M331.4 214.5H323C321.2 214.5 319.8 216 319.8 217.7V223.9C319.8 225.7 321.3 227.1 323 227.1H323.3L322.6 229.9C322.5 230.1 322.8 230.3 323 230.1L327.3 227.1H331.6C333.4 227.1 334.8 225.6 334.8 223.9V217.7C334.7 215.9 333.2 214.5 331.4 214.5Z" fill="white"/>
<path d="M276.5 220.7L280.2 224.4C280.7 224.9 281.5 224.9 282 224.4L290.3 216.1" stroke="white" stroke-width="4" stroke-miterlimit="10" stroke-linecap="round" stroke-linejoin="round"/>
<path d="M327.2 132.199C331.342 132.199 334.7 128.841 334.7 124.699C334.7 120.557 331.342 117.199 327.2 117.199C323.058 117.199 319.7 120.557 319.7 124.699C319.7 128.841 323.058 132.199 327.2 132.199Z" stroke="white" stroke-width="4" stroke-miterlimit="10" stroke-linecap="round" stroke-linejoin="round"/>
<path d="M266.8 85.7004L266.6 70.7004L256.6 70.8004C256 68.9004 255.3 67.2004 254.3 65.5004L261.3 58.3004L250.6 47.8004L243.6 55.0004C241.9 54.1004 240.1 53.4004 238.2 52.9004L238.1 42.9004L223.1 43.1004L223.2 53.1004C221.3 53.7004 219.6 54.4004 217.9 55.4004L210.7 48.4004L200.2 59.1004L207.4 66.1004C206.5 67.8004 205.8 69.6004 205.3 71.5004L195.3 71.6004L195.5 86.6004L205.5 86.5004C206.1 88.4004 206.8 90.1004 207.8 91.8004L200.8 99.0004L211.5 109.5L218.5 102.3C220.2 103.2 222 103.9 223.9 104.4L224 114.4L239 114.2L238.9 104.2C240.8 103.6 242.5 102.9 244.2 101.9L251.4 108.9L261.9 98.2004L254.7 91.2004C255.6 89.5004 256.3 87.7004 256.8 85.8004L266.8 85.7004ZM231.3 90.3004C224.8 90.4004 219.6 85.2004 219.5 78.7004C219.4 72.2004 224.6 67.0004 231.1 66.9004C237.6 66.8004 242.8 72.0004 242.9 78.5004C242.9 85.0004 237.7 90.2004 231.3 90.3004Z" fill="white"/>
<path d="M266.8 85.7004L266.6 70.7004L256.6 70.8004C256 68.9004 255.3 67.2004 254.3 65.5004L261.3 58.3004L250.6 47.8004L243.6 55.0004C241.9 54.1004 240.1 53.4004 238.2 52.9004L238.1 42.9004L223.1 43.1004L223.2 53.1004C221.3 53.7004 219.6 54.4004 217.9 55.4004L210.7 48.4004L200.2 59.1004L207.4 66.1004C206.5 67.8004 205.8 69.6004 205.3 71.5004L195.3 71.6004L195.5 86.6004L205.5 86.5004C206.1 88.4004 206.8 90.1004 207.8 91.8004L200.8 99.0004L211.5 109.5L218.5 102.3C220.2 103.2 222 103.9 223.9 104.4L224 114.4L239 114.2L238.9 104.2C240.8 103.6 242.5 102.9 244.2 101.9L251.4 108.9L261.9 98.2004L254.7 91.2004C255.6 89.5004 256.3 87.7004 256.8 85.8004L266.8 85.7004ZM231.3 90.3004C224.8 90.4004 219.6 85.2004 219.5 78.7004C219.4 72.2004 224.6 67.0004 231.1 66.9004C237.6 66.8004 242.8 72.0004 242.9 78.5004C242.9 85.0004 237.7 90.2004 231.3 90.3004Z" fill="#F09F54"/>
<path d="M266.8 85.7004L266.6 70.7004L256.6 70.8004C256 68.9004 255.3 67.2004 254.3 65.5004L261.3 58.3004L250.6 47.8004L243.6 55.0004C241.9 54.1004 240.1 53.4004 238.2 52.9004L238.1 42.9004L223.1 43.1004L223.2 53.1004C221.3 53.7004 219.6 54.4004 217.9 55.4004L210.7 48.4004L200.2 59.1004L207.4 66.1004C206.5 67.8004 205.8 69.6004 205.3 71.5004L195.3 71.6004L195.5 86.6004L205.5 86.5004C206.1 88.4004 206.8 90.1004 207.8 91.8004L200.8 99.0004L211.5 109.5L218.5 102.3C220.2 103.2 222 103.9 223.9 104.4L224 114.4L239 114.2L238.9 104.2C240.8 103.6 242.5 102.9 244.2 101.9L251.4 108.9L261.9 98.2004L254.7 91.2004C255.6 89.5004 256.3 87.7004 256.8 85.8004L266.8 85.7004ZM231.3 90.3004C224.8 90.4004 219.6 85.2004 219.5 78.7004C219.4 72.2004 224.6 67.0004 231.1 66.9004C237.6 66.8004 242.8 72.0004 242.9 78.5004C242.9 85.0004 237.7 90.2004 231.3 90.3004Z" fill="#F09F54"/>
<g opacity="0.29">
<path opacity="0.29" d="M263 70.8012C263 70.8012 263 70.9012 263 70.8012H266.7V70.7012L263 70.8012Z" fill="#F09F54"/>
<path opacity="0.29" d="M250 55.1004L253.9 51.1004L250.7 47.9004L245.5 53.2004C247.1 53.7004 248.6 54.3004 250 55.1004Z" fill="#F09F54"/>
<path opacity="0.29" d="M237.3 66.9004C236.2 66.9004 235.2 67.1004 234.3 67.3004C239.2 68.7004 242.8 73.1004 242.8 78.4004C242.9 83.8004 239.2 88.4004 234.3 89.8004C235.3 90.1004 236.5 90.3004 237.6 90.2004C244.1 90.1004 249.2 84.8004 249.2 78.4004C249.2 72.0004 243.8 66.9004 237.3 66.9004Z" fill="#F09F54"/>
<path opacity="0.29" d="M222.4 53.4008L224.4 55.3008C226.1 54.4008 227.8 53.6008 229.7 53.0008L229.6 43.0008L238.2 42.9008V42.8008L223.2 43.0008L223.3 53.0008C223.1 53.2008 222.7 53.3008 222.4 53.4008Z" fill="#F09F54"/>
<path opacity="0.29" d="M230.2 104.301C228.3 103.801 226.5 103.101 224.8 102.201L223 104.101C223.3 104.201 223.6 104.301 223.9 104.401L224 114.401L230.3 114.301L230.2 104.301Z" fill="#F09F54"/>
<path opacity="0.29" d="M201.8 71.5008L211.8 71.4008C212.3 69.5008 213 67.7008 213.9 66.0008L206.7 59.0008L214.1 51.5008L210.9 48.3008L200.4 59.0008L207.6 66.0008C206.7 67.7008 206 69.5008 205.5 71.4008L195.5 71.5008L195.7 86.5008L202 86.4008L201.8 71.5008Z" fill="#F09F54"/>
<path opacity="0.29" d="M250.5 101.9C249.1 102.7 247.7 103.3 246.2 103.8L251.4 108.9L254.5 105.7L250.5 101.9Z" fill="#F09F54"/>
<path opacity="0.29" d="M207.2 98.8008L214.2 91.6008C213.3 89.9008 212.5 88.2008 211.9 86.3008L205.6 86.4008C206.2 88.2008 206.9 90.0008 207.8 91.6008L200.8 98.8008L211.5 109.301L214.6 106.101L207.2 98.8008Z" fill="#F09F54"/>
</g>
<path d="M266.8 85.7004L266.6 70.7004L256.6 70.8004C256 68.9004 255.3 67.2004 254.3 65.5004L261.3 58.3004L250.6 47.8004L243.6 55.0004C241.9 54.1004 240.1 53.4004 238.2 52.9004L238.1 42.9004L223.1 43.1004L223.2 53.1004C221.3 53.7004 219.6 54.4004 217.9 55.4004L210.7 48.4004L200.2 59.1004L207.4 66.1004C206.5 67.8004 205.8 69.6004 205.3 71.5004L195.3 71.6004L195.5 86.6004L205.5 86.5004C206.1 88.4004 206.8 90.1004 207.8 91.8004L200.8 99.0004L211.5 109.5L218.5 102.3C220.2 103.2 222 103.9 223.9 104.4L224 114.4L239 114.2L238.9 104.2C240.8 103.6 242.5 102.9 244.2 101.9L251.4 108.9L261.9 98.2004L254.7 91.2004C255.6 89.5004 256.3 87.7004 256.8 85.8004L266.8 85.7004ZM231.3 90.3004C224.8 90.4004 219.6 85.2004 219.5 78.7004C219.4 72.2004 224.6 67.0004 231.1 66.9004C237.6 66.8004 242.8 72.0004 242.9 78.5004C242.9 85.0004 237.7 90.2004 231.3 90.3004Z" stroke="#444E59" stroke-width="4" stroke-miterlimit="10" stroke-linecap="round" stroke-linejoin="round"/>
<path d="M204.3 302H80.6002C76.5002 302 73.2002 298.7 73.2002 294.6V210C73.2002 205.9 76.5002 202.6 80.6002 202.6H204.4C208.5 202.6 211.8 205.9 211.8 210V294.6C211.7 298.7 208.4 302 204.3 302Z" fill="#444E59"/>
<path d="M211.7 218.7H73.2002V210C73.2002 205.9 76.5002 202.6 80.6002 202.6H204.4C208.5 202.6 211.8 205.9 211.8 210V218.7H211.7Z" fill="#BCBCBC"/>
<path d="M204.3 302H80.6002C76.5002 302 73.2002 298.7 73.2002 294.6V210C73.2002 205.9 76.5002 202.6 80.6002 202.6H204.4C208.5 202.6 211.8 205.9 211.8 210V294.6C211.7 298.7 208.4 302 204.3 302Z" stroke="#444E59" stroke-width="4" stroke-miterlimit="10" stroke-linecap="round" stroke-linejoin="round"/>
<path d="M204.3 302H80.6002C76.5002 302 73.2002 298.7 73.2002 294.6V210C73.2002 205.9 76.5002 202.6 80.6002 202.6H204.4C208.5 202.6 211.8 205.9 211.8 210V294.6C211.7 298.7 208.4 302 204.3 302Z" stroke="#444E59" stroke-width="4" stroke-miterlimit="10" stroke-linecap="round" stroke-linejoin="round"/>
<path d="M211.7 218.7H73.2002V210C73.2002 205.9 76.5002 202.6 80.6002 202.6H204.4C208.5 202.6 211.8 205.9 211.8 210V218.7H211.7Z" stroke="#444E59" stroke-width="4" stroke-miterlimit="10" stroke-linecap="round" stroke-linejoin="round"/>
<path d="M92.2998 289.301H107.9" stroke="white" stroke-width="4" stroke-miterlimit="10" stroke-linecap="round" stroke-linejoin="round"/>
<path d="M81.2998 289.301H82.3998" stroke="white" stroke-width="4" stroke-miterlimit="10" stroke-linecap="round" stroke-linejoin="round"/>
<path d="M92.2998 280.701H131.8" stroke="white" stroke-width="4" stroke-miterlimit="10" stroke-linecap="round" stroke-linejoin="round"/>
<path d="M81.2998 280.701H82.3998" stroke="white" stroke-width="4" stroke-miterlimit="10" stroke-linecap="round" stroke-linejoin="round"/>
<path d="M150.6 272H161.4" stroke="#64BDFF" stroke-width="4" stroke-miterlimit="10" stroke-linecap="round" stroke-linejoin="round"/>
<path d="M121.2 272H141.2" stroke="white" stroke-width="4" stroke-miterlimit="10" stroke-linecap="round" stroke-linejoin="round"/>
<path d="M92.2998 272H112.1" stroke="#FF5F5F" stroke-width="4" stroke-miterlimit="10" stroke-linecap="round" stroke-linejoin="round"/>
<path d="M81.2998 272H82.3998" stroke="white" stroke-width="4" stroke-miterlimit="10" stroke-linecap="round" stroke-linejoin="round"/>
<path d="M125.6 263.4H173.8" stroke="white" stroke-width="4" stroke-miterlimit="10" stroke-linecap="round" stroke-linejoin="round"/>
<path d="M92.2998 263.4H117.5" stroke="#64BDFF" stroke-width="4" stroke-miterlimit="10" stroke-linecap="round" stroke-linejoin="round"/>
<path d="M81.2998 263.4H82.3998" stroke="white" stroke-width="4" stroke-miterlimit="10" stroke-linecap="round" stroke-linejoin="round"/>
<path d="M125.6 254.801H143.6" stroke="#FF5F5F" stroke-width="4" stroke-miterlimit="10" stroke-linecap="round" stroke-linejoin="round"/>
<path d="M92.2998 254.801H117.5" stroke="#FFBE78" stroke-width="4" stroke-miterlimit="10" stroke-linecap="round" stroke-linejoin="round"/>
<path d="M81.2998 254.801H82.3998" stroke="white" stroke-width="4" stroke-miterlimit="10" stroke-linecap="round" stroke-linejoin="round"/>
<path d="M129.1 246.201H134" stroke="#64BDFF" stroke-width="4" stroke-miterlimit="10" stroke-linecap="round" stroke-linejoin="round"/>
<path d="M110.1 246.201H121.2" stroke="#FF5F5F" stroke-width="4" stroke-miterlimit="10" stroke-linecap="round" stroke-linejoin="round"/>
<path d="M92.2998 246.201H101.5" stroke="#C383F2" stroke-width="4" stroke-miterlimit="10" stroke-linecap="round" stroke-linejoin="round"/>
<path d="M81.2998 246.201H82.3998" stroke="white" stroke-width="4" stroke-miterlimit="10" stroke-linecap="round" stroke-linejoin="round"/>
<path d="M165.1 237.5H173.8" stroke="#64BDFF" stroke-width="4" stroke-miterlimit="10" stroke-linecap="round" stroke-linejoin="round"/>
<path d="M120 237.5H154.1" stroke="#FF5F5F" stroke-width="4" stroke-miterlimit="10" stroke-linecap="round" stroke-linejoin="round"/>
<path d="M92.2998 237.5H112.6" stroke="#FFBE78" stroke-width="4" stroke-miterlimit="10" stroke-linecap="round" stroke-linejoin="round"/>
<path d="M81.2998 237.5H82.3998" stroke="white" stroke-width="4" stroke-miterlimit="10" stroke-linecap="round" stroke-linejoin="round"/>
<path d="M143.6 228.9H161.4" stroke="#FFBE78" stroke-width="4" stroke-miterlimit="10" stroke-linecap="round" stroke-linejoin="round"/>
<path d="M121.2 228.9H135" stroke="#6DBF7B" stroke-width="4" stroke-miterlimit="10" stroke-linecap="round" stroke-linejoin="round"/>
<path d="M106.2 228.9H114" stroke="#FFBE78" stroke-width="4" stroke-miterlimit="10" stroke-linecap="round" stroke-linejoin="round"/>
<path d="M92.2998 228.9H98.6998" stroke="#6DBF7B" stroke-width="4" stroke-miterlimit="10" stroke-linecap="round" stroke-linejoin="round"/>
<path d="M81.2998 228.9H82.3998" stroke="white" stroke-width="4" stroke-miterlimit="10" stroke-linecap="round" stroke-linejoin="round"/>
<path d="M86.9004 213.199C88.2811 213.199 89.4004 212.08 89.4004 210.699C89.4004 209.319 88.2811 208.199 86.9004 208.199C85.5197 208.199 84.4004 209.319 84.4004 210.699C84.4004 212.08 85.5197 213.199 86.9004 213.199Z" fill="#E7534E"/>
<path d="M95.9004 213.199C97.2811 213.199 98.4004 212.08 98.4004 210.699C98.4004 209.319 97.2811 208.199 95.9004 208.199C94.5197 208.199 93.4004 209.319 93.4004 210.699C93.4004 212.08 94.5197 213.199 95.9004 213.199Z" fill="#444E59"/>
<path d="M105 213.199C106.381 213.199 107.5 212.08 107.5 210.699C107.5 209.319 106.381 208.199 105 208.199C103.619 208.199 102.5 209.319 102.5 210.699C102.5 212.08 103.619 213.199 105 213.199Z" fill="#444E59"/>
<path d="M253.6 227.5H164C159.6 227.5 156 223.9 156 219.5V138.6C156 134.2 159.6 130.6 164 130.6H253.6C258 130.6 261.6 134.2 261.6 138.6V219.5C261.6 223.9 258 227.5 253.6 227.5Z" fill="white"/>
<path d="M253.6 227.5H164C159.6 227.5 156 223.9 156 219.5V138.6C156 134.2 159.6 130.6 164 130.6H253.6C258 130.6 261.6 134.2 261.6 138.6V219.5C261.6 223.9 258 227.5 253.6 227.5Z" fill="white"/>
<path d="M253.6 227.5H164C159.6 227.5 156 223.9 156 219.5V138.6C156 134.2 159.6 130.6 164 130.6H253.6C258 130.6 261.6 134.2 261.6 138.6V219.5C261.6 223.9 258 227.5 253.6 227.5Z" stroke="#444E59" stroke-width="4" stroke-miterlimit="10" stroke-linecap="round" stroke-linejoin="round"/>
<path d="M251.9 138.801H165.1V196.501H251.9V138.801Z" fill="#9483C4"/>
<path d="M251.9 138.801H165.1V196.501H251.9V138.801Z" stroke="#444E59" stroke-width="4" stroke-miterlimit="10" stroke-linecap="round" stroke-linejoin="round"/>
<path d="M165.1 205.699H219.9" stroke="#444E59" stroke-width="4" stroke-miterlimit="10" stroke-linecap="round" stroke-linejoin="round"/>
<path d="M165.1 214.9H197.5" stroke="#444E59" stroke-width="4" stroke-miterlimit="10" stroke-linecap="round" stroke-linejoin="round"/>
<path d="M173.8 186.199L192.5 167.699L209.9 185.099" stroke="#444E59" stroke-width="4" stroke-miterlimit="10" stroke-linecap="round" stroke-linejoin="round"/>
<path d="M242.5 186.199L219.9 156.699L201.8 176.899" stroke="#444E59" stroke-width="4" stroke-miterlimit="10" stroke-linecap="round" stroke-linejoin="round"/>
<path d="M242.3 214.8C245.007 214.8 247.2 212.606 247.2 209.9C247.2 207.194 245.007 205 242.3 205C239.594 205 237.4 207.194 237.4 209.9C237.4 212.606 239.594 214.8 242.3 214.8Z" stroke="#444E59" stroke-width="4" stroke-miterlimit="10" stroke-linecap="round" stroke-linejoin="round"/>
<path d="M198 162.9C201.424 162.9 204.2 160.124 204.2 156.7C204.2 153.276 201.424 150.5 198 150.5C194.576 150.5 191.8 153.276 191.8 156.7C191.8 160.124 194.576 162.9 198 162.9Z" fill="#F09F54"/>
<path d="M198 162.9C201.424 162.9 204.2 160.124 204.2 156.7C204.2 153.276 201.424 150.5 198 150.5C194.576 150.5 191.8 153.276 191.8 156.7C191.8 160.124 194.576 162.9 198 162.9Z" stroke="#444E59" stroke-width="4" stroke-miterlimit="10" stroke-linecap="round" stroke-linejoin="round"/>
<path d="M154.3 102.1H181.1" stroke="#444E59" stroke-width="4" stroke-miterlimit="10" stroke-linecap="round" stroke-linejoin="round"/>
<path d="M140 102.1H147.1" stroke="#444E59" stroke-width="4" stroke-miterlimit="10" stroke-linecap="round" stroke-linejoin="round"/>
<path d="M167.7 89.6992H181.1" stroke="#444E59" stroke-width="4" stroke-miterlimit="10" stroke-linecap="round" stroke-linejoin="round"/>
<path d="M156.9 89.6992H160.9" stroke="#444E59" stroke-width="4" stroke-miterlimit="10" stroke-linecap="round" stroke-linejoin="round"/>
<path d="M125.3 180.5H146.2" stroke="#444E59" stroke-width="4" stroke-miterlimit="10" stroke-linecap="round" stroke-linejoin="round"/>
<path d="M114.2 180.5H119.7" stroke="#444E59" stroke-width="4" stroke-miterlimit="10" stroke-linecap="round" stroke-linejoin="round"/>
<path d="M137.7 168.1H146.2" stroke="#444E59" stroke-width="4" stroke-miterlimit="10" stroke-linecap="round" stroke-linejoin="round"/>
<path d="M127.3 168.1H130.5" stroke="#444E59" stroke-width="4" stroke-miterlimit="10" stroke-linecap="round" stroke-linejoin="round"/>
<path d="M458.601 35.4004H478.401" stroke="#444E59" stroke-width="4" stroke-miterlimit="10" stroke-linecap="round" stroke-linejoin="round"/>
<path d="M446.4 35.4004H452" stroke="#444E59" stroke-width="4" stroke-miterlimit="10" stroke-linecap="round" stroke-linejoin="round"/>
<path d="M469.9 23H478.4" stroke="#444E59" stroke-width="4" stroke-miterlimit="10" stroke-linecap="round" stroke-linejoin="round"/>
<path d="M459.601 23H462.701" stroke="#444E59" stroke-width="4" stroke-miterlimit="10" stroke-linecap="round" stroke-linejoin="round"/>
<path d="M474 105.299H395.8C391 105.299 387.2 101.399 387.2 96.6992V58.7992C387.2 53.9992 391.1 50.1992 395.8 50.1992H474C478.8 50.1992 482.6 54.0992 482.6 58.7992V96.5992C482.6 101.399 478.8 105.299 474 105.299Z" fill="#2FA9ED"/>
<path d="M474 105.299H395.8C391 105.299 387.2 101.399 387.2 96.6992V58.7992C387.2 53.9992 391.1 50.1992 395.8 50.1992H474C478.8 50.1992 482.6 54.0992 482.6 58.7992V96.5992C482.6 101.399 478.8 105.299 474 105.299Z" stroke="#444E59" stroke-width="3" stroke-miterlimit="10" stroke-linecap="round" stroke-linejoin="round"/>
<path opacity="0.56" d="M434.9 65H468.7" stroke="white" stroke-width="3" stroke-miterlimit="10" stroke-linecap="round" stroke-linejoin="round"/>
<path opacity="0.56" d="M434.9 75.9004H457.3" stroke="white" stroke-width="3" stroke-miterlimit="10" stroke-linecap="round" stroke-linejoin="round"/>
<g opacity="0.56">
<path opacity="0.56" d="M451.9 92.1996H438.3C436.5 92.1996 435 90.6996 435 88.8996C435 87.0996 436.5 85.5996 438.3 85.5996H451.9C453.7 85.5996 455.2 87.0996 455.2 88.8996C455.2 90.6996 453.8 92.1996 451.9 92.1996Z" fill="white"/>
<path opacity="0.56" d="M451.9 92.1996H438.3C436.5 92.1996 435 90.6996 435 88.8996C435 87.0996 436.5 85.5996 438.3 85.5996H451.9C453.7 85.5996 455.2 87.0996 455.2 88.8996C455.2 90.6996 453.8 92.1996 451.9 92.1996Z" stroke="white" stroke-width="3" stroke-miterlimit="10" stroke-linecap="round" stroke-linejoin="round"/>
</g>
<path d="M420.8 92.6996H402.9C400.3 92.6996 398.3 90.5996 398.3 88.0996V67.1996C398.3 64.5996 400.4 62.5996 402.9 62.5996H420.8C423.4 62.5996 425.4 64.6996 425.4 67.1996V88.0996C425.4 90.5996 423.4 92.6996 420.8 92.6996Z" stroke="white" stroke-width="3" stroke-miterlimit="10" stroke-linecap="round" stroke-linejoin="round"/>
<path d="M411.9 79.0004C414.551 79.0004 416.7 76.8513 416.7 74.2004C416.7 71.5494 414.551 69.4004 411.9 69.4004C409.249 69.4004 407.1 71.5494 407.1 74.2004C407.1 76.8513 409.249 79.0004 411.9 79.0004Z" stroke="white" stroke-width="3" stroke-miterlimit="10" stroke-linecap="round" stroke-linejoin="round"/>
<path d="M402.8 92.1996C402.8 87.1996 406.9 83.0996 411.9 83.0996C416.9 83.0996 421 87.1996 421 92.1996" stroke="white" stroke-width="3" stroke-miterlimit="10" stroke-linecap="round" stroke-linejoin="round"/>
</svg>
