<svg width="357" height="82" viewBox="0 0 357 82" fill="none" xmlns="http://www.w3.org/2000/svg">
<rect y="39" width="357" height="18" fill="#B28EF7" fill-opacity="0.42"/>
<path d="M22.4997 33.766V37.193C22.4997 37.3003 22.5381 37.3923 22.6147 37.469C22.6914 37.5303 22.7834 37.561 22.8907 37.561C23.1361 37.561 23.2587 37.4383 23.2587 37.193V33.766H27.3297V37.193C27.3297 37.4383 27.4524 37.561 27.6977 37.561C27.8051 37.561 27.8971 37.5303 27.9737 37.469C28.0504 37.3923 28.0887 37.3003 28.0887 37.193V33.766H32.1137V37.193C32.1137 37.3003 32.1521 37.3923 32.2287 37.469C32.3054 37.5303 32.3974 37.561 32.5047 37.561H33.3787C33.4707 37.561 33.5474 37.584 33.6087 37.63C33.6854 37.6607 33.7391 37.745 33.7697 37.883C33.8157 38.021 33.8464 38.2357 33.8617 38.527C33.8771 38.8183 33.8847 39.217 33.8847 39.723C33.8847 40.2597 33.8771 40.6813 33.8617 40.988C33.8464 41.2947 33.8157 41.5247 33.7697 41.678C33.7391 41.8313 33.6854 41.9233 33.6087 41.954C33.5474 41.9847 33.4707 42 33.3787 42H32.6657C32.1444 42 31.6844 41.954 31.2857 41.862C30.9024 41.77 30.5497 41.563 30.2277 41.241C29.8444 41.563 29.4381 41.77 29.0087 41.862C28.5794 41.954 28.1424 42 27.6977 42C27.3911 42 27.0154 41.954 26.5707 41.862C26.1261 41.77 25.7427 41.563 25.4207 41.241C25.0374 41.563 24.6694 41.77 24.3167 41.862C23.9794 41.954 23.7111 42 23.5117 42C23.2051 42 22.8984 41.9693 22.5917 41.908C22.3004 41.8467 22.0627 41.7547 21.8787 41.632L22.4997 40.597C22.4997 41.4863 22.3617 42.322 22.0857 43.104C21.8097 43.886 21.4034 44.5683 20.8667 45.151C20.3454 45.749 19.7014 46.2167 18.9347 46.554C18.1681 46.8913 17.2941 47.06 16.3127 47.06H15.1627C14.2121 47.06 13.3611 46.9143 12.6097 46.623C11.8737 46.3317 11.2451 45.91 10.7237 45.358C10.2024 44.8213 9.80373 44.162 9.52773 43.38C9.25173 42.598 9.11373 41.7163 9.11373 40.735V35.928H13.2767V40.85C13.2767 41.4327 13.4454 41.8773 13.7827 42.184C14.1201 42.4907 14.6644 42.644 15.4157 42.644H16.1747C17.0027 42.644 17.5931 42.4753 17.9457 42.138C18.2984 41.8007 18.4747 41.3713 18.4747 40.85V33.766H22.4997ZM37.9329 37.561C38.1936 37.561 38.3239 37.4613 38.3239 37.262C38.3239 37.1393 38.2396 36.986 38.0709 36.802L33.8849 32.639V29.603L42.8779 26.314L43.8899 30.477L39.4509 32.133L41.2219 33.904C41.6359 34.318 41.9732 34.7013 42.2339 35.054C42.4946 35.3913 42.7016 35.721 42.8549 36.043C43.0082 36.3497 43.1079 36.6563 43.1539 36.963C43.2152 37.2697 43.2459 37.5993 43.2459 37.952C43.2459 38.6727 43.1309 39.2937 42.9009 39.815C42.6862 40.321 42.3796 40.735 41.9809 41.057C41.5976 41.379 41.1452 41.6167 40.6239 41.77C40.1026 41.9233 39.5429 42 38.9449 42H33.3789C33.2869 42 33.2102 41.9847 33.1489 41.954C33.0722 41.9233 33.0186 41.839 32.9879 41.701C32.9419 41.5477 32.9112 41.3253 32.8959 41.034C32.8806 40.7427 32.8729 40.344 32.8729 39.838C32.8729 39.3013 32.8806 38.8797 32.8959 38.573C32.9112 38.2663 32.9419 38.044 32.9879 37.906C33.0186 37.7527 33.0722 37.6607 33.1489 37.63C33.2102 37.584 33.2869 37.561 33.3789 37.561H37.9329ZM55.9078 37.561C55.9998 37.561 56.0764 37.584 56.1378 37.63C56.1991 37.6607 56.2451 37.745 56.2758 37.883C56.3218 38.021 56.3524 38.2357 56.3678 38.527C56.3831 38.8183 56.3908 39.217 56.3908 39.723C56.3908 40.2597 56.3831 40.6813 56.3678 40.988C56.3524 41.2947 56.3218 41.5247 56.2758 41.678C56.2451 41.8313 56.1991 41.9233 56.1378 41.954C56.0764 41.9847 55.9998 42 55.9078 42H54.5968C54.5508 42.9353 54.3744 43.7557 54.0678 44.461C53.7764 45.1663 53.3778 45.7567 52.8718 46.232C52.3658 46.7227 51.7678 47.0907 51.0778 47.336C50.3878 47.5813 49.6364 47.704 48.8238 47.704H45.3968L45.1438 43.265H49.0768C49.5828 43.265 49.9354 43.1653 50.1348 42.966C50.3494 42.7667 50.4568 42.4447 50.4568 42H50.0888C49.1381 42 48.3561 41.8927 47.7428 41.678C47.1294 41.4633 46.6464 41.1643 46.2938 40.781C45.9564 40.3823 45.7188 39.8993 45.5808 39.332C45.4581 38.7647 45.3968 38.136 45.3968 37.446C45.3968 36.7867 45.4964 36.158 45.6958 35.56C45.8951 34.962 46.1864 34.4407 46.5698 33.996C46.9684 33.536 47.4514 33.1757 48.0188 32.915C48.5861 32.639 49.2301 32.501 49.9508 32.501C50.5794 32.501 51.1774 32.593 51.7448 32.777C52.3121 32.961 52.8104 33.26 53.2398 33.674C53.6691 34.0727 54.0064 34.594 54.2518 35.238C54.5124 35.8667 54.6428 36.641 54.6428 37.561H55.9078ZM49.3298 37.17C49.3298 37.4153 49.3758 37.607 49.4678 37.745C49.5598 37.883 49.7668 37.952 50.0888 37.952H50.7098V37.308C50.7098 36.7253 50.4721 36.434 49.9968 36.434C49.5521 36.434 49.3298 36.6793 49.3298 37.17ZM57.3102 37.561C57.2182 37.3157 57.1722 36.94 57.1722 36.434C57.1722 35.8973 57.2872 35.376 57.5172 34.87C57.7472 34.3487 58.0692 33.8887 58.4832 33.49C58.8972 33.076 59.3956 32.7463 59.9782 32.501C60.5762 32.2557 61.2432 32.133 61.9792 32.133C62.3932 32.133 62.7612 32.1867 63.0832 32.294L65.4062 29.994L70.0062 34.87C70.5276 35.422 70.8802 35.9587 71.0642 36.48C71.2482 36.986 71.3402 37.4767 71.3402 37.952C71.3402 38.5193 71.2406 39.0483 71.0412 39.539C70.8419 40.0297 70.5506 40.459 70.1672 40.827C69.7839 41.195 69.3162 41.4863 68.7642 41.701C68.2276 41.9003 67.6142 42 66.9242 42H64.1412C63.6199 42 63.1369 41.9923 62.6922 41.977C62.2629 41.9463 61.8566 41.8697 61.4732 41.747C60.9672 41.8697 60.4306 41.9463 59.8632 41.977C59.2959 41.9923 58.8206 42 58.4372 42H55.9072C55.8152 42 55.7386 41.9847 55.6772 41.954C55.6006 41.9233 55.5469 41.839 55.5162 41.701C55.4702 41.5477 55.4396 41.3253 55.4242 41.034C55.4089 40.7427 55.4012 40.344 55.4012 39.838C55.4012 39.3013 55.4089 38.8797 55.4242 38.573C55.4396 38.2663 55.4702 38.044 55.5162 37.906C55.5469 37.7527 55.6006 37.6607 55.6772 37.63C55.7386 37.584 55.8152 37.561 55.9072 37.561H57.3102ZM61.5422 37.699C61.7416 37.5763 61.9026 37.423 62.0252 37.239C62.1632 37.0397 62.2322 36.8097 62.2322 36.549C62.2322 36.365 62.1709 36.1963 62.0482 36.043C61.9256 35.8897 61.7569 35.813 61.5422 35.813C61.3276 35.813 61.1589 35.8897 61.0362 36.043C60.9136 36.1963 60.8522 36.365 60.8522 36.549C60.8522 36.8097 60.9136 37.0397 61.0362 37.239C61.1742 37.423 61.3429 37.5763 61.5422 37.699ZM67.0392 37.239C67.0392 37.1777 67.0239 37.124 66.9932 37.078C66.9626 37.0167 66.9089 36.94 66.8322 36.848C66.7556 36.756 66.6406 36.641 66.4872 36.503C66.3339 36.3497 66.1422 36.158 65.9122 35.928V36.066C65.9122 36.3727 65.8816 36.6563 65.8202 36.917C65.7742 37.1623 65.7206 37.377 65.6592 37.561H66.5332C66.7326 37.561 66.8629 37.538 66.9242 37.492C67.0009 37.4307 67.0392 37.3463 67.0392 37.239ZM79.4499 42C78.6525 42 77.9779 41.885 77.4259 41.655C76.8892 41.4097 76.4522 41.0877 76.1149 40.689C75.7775 40.2903 75.5322 39.8227 75.3789 39.286C75.2255 38.734 75.1489 38.159 75.1489 37.561V33.766H79.3119V37.193C79.3119 37.3003 79.3502 37.3923 79.4269 37.469C79.5035 37.5303 79.5955 37.561 79.7029 37.561H85.5219C85.6139 37.561 85.6982 37.5303 85.7749 37.469C85.8516 37.3923 85.8899 37.3003 85.8899 37.193V33.766H90.0529V37.193C90.0529 37.3003 90.0912 37.3923 90.1679 37.469C90.2446 37.5303 90.3366 37.561 90.4439 37.561H91.3409C91.4329 37.561 91.5096 37.584 91.5709 37.63C91.6322 37.6607 91.6859 37.745 91.7319 37.883C91.7779 38.021 91.8086 38.2357 91.8239 38.527C91.8392 38.8183 91.8469 39.217 91.8469 39.723C91.8469 40.2597 91.8392 40.6813 91.8239 40.988C91.8086 41.2947 91.7779 41.5247 91.7319 41.678C91.6859 41.8313 91.6322 41.9233 91.5709 41.954C91.5096 41.9847 91.4329 42 91.3409 42H90.6049C90.0682 42 89.5852 41.954 89.1559 41.862C88.7266 41.77 88.3509 41.563 88.0289 41.241C87.6455 41.563 87.2699 41.77 86.9019 41.862C86.5339 41.954 86.1966 42 85.8899 42H79.4499ZM85.8899 32.501H79.3119V29.35H85.8899V32.501ZM92.7536 37.561C92.8456 37.561 92.9299 37.5303 93.0066 37.469C93.0833 37.3923 93.1216 37.3003 93.1216 37.193V33.766H97.2846V37.561C97.2846 38.297 97.1773 38.941 96.9626 39.493C96.7633 40.045 96.4796 40.505 96.1116 40.873C95.7436 41.241 95.2989 41.5247 94.7776 41.724C94.2716 41.908 93.7196 42 93.1216 42H91.3506C91.2586 42 91.1819 41.9847 91.1206 41.954C91.0439 41.9233 90.9903 41.839 90.9596 41.701C90.9136 41.5477 90.8829 41.3253 90.8676 41.034C90.8523 40.7427 90.8446 40.344 90.8446 39.838C90.8446 39.3013 90.8523 38.8797 90.8676 38.573C90.8829 38.2663 90.9136 38.044 90.9596 37.906C90.9903 37.7527 91.0439 37.6607 91.1206 37.63C91.1819 37.584 91.2586 37.561 91.3506 37.561H92.7536ZM97.3076 32.501H93.1216V29.35H97.3076V32.501ZM98.6906 27.97H102.877V42H98.6906V27.97ZM109.059 37.239C109.059 37.4537 109.182 37.561 109.427 37.561H110.301C110.393 37.561 110.47 37.584 110.531 37.63C110.608 37.6607 110.662 37.745 110.692 37.883C110.738 38.021 110.769 38.2357 110.784 38.527C110.8 38.8183 110.807 39.217 110.807 39.723C110.807 40.2597 110.8 40.6813 110.784 40.988C110.769 41.2947 110.738 41.5247 110.692 41.678C110.662 41.8313 110.608 41.9233 110.531 41.954C110.47 41.9847 110.393 42 110.301 42H109.933C109.565 42 109.243 41.977 108.967 41.931C108.875 42.6823 108.668 43.38 108.346 44.024C108.024 44.6833 107.61 45.2507 107.104 45.726C106.598 46.2167 106 46.6 105.31 46.876C104.636 47.1673 103.9 47.313 103.102 47.313H100.572L100.181 42.897H102.596C103.424 42.897 104.007 42.7283 104.344 42.391C104.697 42.0537 104.873 41.632 104.873 41.126V33.766H109.059V37.239ZM111.826 37.561C111.734 37.3003 111.665 37.0473 111.619 36.802C111.588 36.5567 111.573 36.3113 111.573 36.066C111.573 35.56 111.665 35.0463 111.849 34.525C112.048 33.9883 112.339 33.513 112.723 33.099C113.106 32.6697 113.589 32.317 114.172 32.041C114.77 31.765 115.46 31.627 116.242 31.627C116.901 31.627 117.514 31.719 118.082 31.903C118.649 32.087 119.132 32.3783 119.531 32.777C119.929 33.1757 120.244 33.697 120.474 34.341C120.704 34.985 120.819 35.767 120.819 36.687V37.561C120.819 38.205 120.711 38.7953 120.497 39.332C120.297 39.8687 119.983 40.3363 119.554 40.735C119.124 41.1337 118.58 41.448 117.921 41.678C117.277 41.8927 116.51 42 115.621 42H110.308C110.216 42 110.139 41.9847 110.078 41.954C110.001 41.9233 109.947 41.839 109.917 41.701C109.871 41.5477 109.84 41.3253 109.825 41.034C109.809 40.7427 109.802 40.344 109.802 39.838C109.802 39.3013 109.809 38.8797 109.825 38.573C109.84 38.2663 109.871 38.044 109.917 37.906C109.947 37.7527 110.001 37.6607 110.078 37.63C110.139 37.584 110.216 37.561 110.308 37.561H111.826ZM116.748 37.699C116.824 37.5763 116.863 37.423 116.863 37.239C116.878 37.055 116.886 36.871 116.886 36.687C116.886 36.4263 116.832 36.1963 116.725 35.997C116.633 35.7823 116.433 35.675 116.127 35.675C115.943 35.675 115.789 35.7363 115.667 35.859C115.559 35.9663 115.506 36.112 115.506 36.296C115.506 36.48 115.567 36.6947 115.69 36.94C115.828 37.1853 116.18 37.4383 116.748 37.699ZM118.289 30.362H114.103V27.211H118.289V30.362ZM132.964 41.632L133.355 37.561H142.21C142.302 37.561 142.379 37.584 142.44 37.63C142.502 37.6607 142.555 37.745 142.601 37.883C142.647 38.021 142.678 38.2357 142.693 38.527C142.709 38.8183 142.716 39.217 142.716 39.723C142.716 40.2597 142.709 40.6813 142.693 40.988C142.678 41.2947 142.647 41.5247 142.601 41.678C142.555 41.8313 142.502 41.9233 142.44 41.954C142.379 41.9847 142.302 42 142.21 42H141.175C141.114 42.7513 140.922 43.4337 140.6 44.047C140.294 44.6757 139.872 45.2123 139.335 45.657C138.799 46.1017 138.155 46.4467 137.403 46.692C136.652 46.9373 135.809 47.06 134.873 47.06H133.217C132.267 47.06 131.416 46.9143 130.664 46.623C129.928 46.3317 129.3 45.91 128.778 45.358C128.257 44.8213 127.858 44.162 127.582 43.38C127.306 42.598 127.168 41.7163 127.168 40.735V35.928H131.331V40.85C131.331 41.4327 131.5 41.8773 131.837 42.184C132.175 42.4907 132.719 42.644 133.47 42.644H135.517C135.962 42.644 136.345 42.598 136.667 42.506C136.989 42.4293 137.15 42.2607 137.15 42C137.15 41.7547 137.028 41.632 136.782 41.632H132.964ZM143.076 37.561C143.183 37.561 143.275 37.5303 143.352 37.469C143.429 37.3923 143.467 37.3003 143.467 37.193C143.467 35.6597 143.873 34.456 144.686 33.582C145.514 32.6927 146.641 32.248 148.067 32.248C149.57 32.248 150.697 32.685 151.448 33.559C152.199 34.433 152.575 35.5983 152.575 37.055C152.575 38.5883 152.161 39.7997 151.333 40.689C150.505 41.563 149.363 42 147.906 42C147.461 42 147.024 41.9387 146.595 41.816C146.166 41.6933 145.798 41.5017 145.491 41.241C145.307 41.4097 145.108 41.54 144.893 41.632C144.694 41.724 144.464 41.8007 144.203 41.862C143.958 41.9233 143.674 41.9617 143.352 41.977C143.03 41.9923 142.647 42 142.202 42C142.11 42 142.033 41.9847 141.972 41.954C141.895 41.9233 141.842 41.839 141.811 41.701C141.765 41.5477 141.734 41.3253 141.719 41.034C141.704 40.7427 141.696 40.344 141.696 39.838C141.696 39.3013 141.704 38.8797 141.719 38.573C141.734 38.2663 141.765 38.044 141.811 37.906C141.842 37.7527 141.895 37.6607 141.972 37.63C142.033 37.584 142.11 37.561 142.202 37.561H143.076ZM147.262 37.055C147.262 37.377 147.331 37.584 147.469 37.676C147.607 37.768 147.776 37.814 147.975 37.814C148.144 37.814 148.297 37.768 148.435 37.676C148.573 37.584 148.642 37.377 148.642 37.055C148.642 36.549 148.42 36.296 147.975 36.296C147.5 36.296 147.262 36.549 147.262 37.055ZM155.876 32.892L159.027 29.856L163.075 34.801C163.658 35.491 164.033 36.112 164.202 36.664C164.386 37.216 164.478 37.7297 164.478 38.205C164.478 38.7263 164.386 39.217 164.202 39.677C164.033 40.137 163.773 40.5433 163.42 40.896C163.067 41.2333 162.615 41.5017 162.063 41.701C161.526 41.9003 160.89 42 160.154 42H154.082L153.714 37.561H159.027C159.272 37.561 159.395 37.4613 159.395 37.262C159.395 37.124 159.311 36.9477 159.142 36.733L155.876 32.892ZM171.277 37.561C171.369 37.561 171.446 37.584 171.507 37.63C171.584 37.6607 171.637 37.745 171.668 37.883C171.714 38.021 171.745 38.2357 171.76 38.527C171.775 38.8183 171.783 39.217 171.783 39.723C171.783 40.2597 171.775 40.6813 171.76 40.988C171.745 41.2947 171.714 41.5247 171.668 41.678C171.637 41.8313 171.584 41.9233 171.507 41.954C171.446 41.9847 171.369 42 171.277 42H170.15C169.353 42 168.678 41.885 168.126 41.655C167.589 41.4097 167.152 41.0877 166.815 40.689C166.478 40.2903 166.232 39.8227 166.079 39.286C165.926 38.734 165.849 38.159 165.849 37.561V27.97H170.035V37.193C170.035 37.4383 170.158 37.561 170.403 37.561H171.277ZM175.821 37.561C176.081 37.561 176.212 37.4613 176.212 37.262C176.212 37.1393 176.127 36.986 175.959 36.802L171.773 32.639V29.603L180.766 26.314L181.778 30.477L177.339 32.133L179.11 33.904C179.524 34.318 179.861 34.7013 180.122 35.054C180.382 35.3913 180.589 35.721 180.743 36.043C180.896 36.3497 180.996 36.6563 181.042 36.963C181.103 37.2697 181.134 37.5993 181.134 37.952C181.134 38.6727 181.019 39.2937 180.789 39.815C180.574 40.321 180.267 40.735 179.869 41.057C179.485 41.379 179.033 41.6167 178.512 41.77C177.99 41.9233 177.431 42 176.833 42H171.267C171.175 42 171.098 41.9847 171.037 41.954C170.96 41.9233 170.906 41.839 170.876 41.701C170.83 41.5477 170.799 41.3253 170.784 41.034C170.768 40.7427 170.761 40.344 170.761 39.838C170.761 39.3013 170.768 38.8797 170.784 38.573C170.799 38.2663 170.83 38.044 170.876 37.906C170.906 37.7527 170.96 37.6607 171.037 37.63C171.098 37.584 171.175 37.561 171.267 37.561H175.821ZM183.031 30.477H187.217V42H183.031V30.477ZM183.652 29.212C183.453 29.212 183.292 29.235 183.169 29.281C183.062 29.3117 182.947 29.4343 182.824 29.649L181.996 31.236L179.351 29.833L180.225 27.947C180.425 27.5177 180.624 27.165 180.823 26.889C181.023 26.5977 181.245 26.3753 181.49 26.222C181.736 26.0533 182.027 25.9383 182.364 25.877C182.717 25.8157 183.146 25.785 183.652 25.785H188.459V29.212H183.652ZM199.241 37.308C199.241 37.2467 199.225 37.17 199.195 37.078C199.164 36.986 199.095 36.8097 198.988 36.549L197.102 31.627L201.012 29.856L203.818 37.193C203.91 37.4383 204.078 37.561 204.324 37.561H205.06C205.152 37.561 205.228 37.584 205.29 37.63C205.366 37.6607 205.42 37.745 205.451 37.883C205.497 38.021 205.527 38.2357 205.543 38.527C205.558 38.8183 205.566 39.217 205.566 39.723C205.566 40.2597 205.558 40.6813 205.543 40.988C205.527 41.2947 205.497 41.5247 205.451 41.678C205.42 41.8313 205.366 41.9233 205.29 41.954C205.228 41.9847 205.152 42 205.06 42H203.933C203.626 42 203.25 41.954 202.806 41.862C202.361 41.77 201.978 41.563 201.656 41.241C201.272 41.563 200.92 41.77 200.598 41.862C200.291 41.954 200.007 42 199.747 42H193.928L193.56 37.561H198.942C199.141 37.561 199.241 37.4767 199.241 37.308ZM206.473 37.561C206.565 37.561 206.65 37.5303 206.726 37.469C206.803 37.3923 206.841 37.3003 206.841 37.193V33.766H211.004V37.561C211.004 38.297 210.897 38.941 210.682 39.493C210.483 40.045 210.199 40.505 209.831 40.873C209.463 41.241 209.019 41.5247 208.497 41.724C207.991 41.908 207.439 42 206.841 42H205.07C204.978 42 204.902 41.9847 204.84 41.954C204.764 41.9233 204.71 41.839 204.679 41.701C204.633 41.5477 204.603 41.3253 204.587 41.034C204.572 40.7427 204.564 40.344 204.564 39.838C204.564 39.3013 204.572 38.8797 204.587 38.573C204.603 38.2663 204.633 38.044 204.679 37.906C204.71 37.7527 204.764 37.6607 204.84 37.63C204.902 37.584 204.978 37.561 205.07 37.561H206.473ZM211.027 32.501H206.841V29.35H211.027V32.501ZM212.41 27.97H216.596V42H212.41V27.97ZM225.064 42C224.267 42 223.592 41.885 223.04 41.655C222.503 41.4097 222.066 41.0877 221.729 40.689C221.392 40.2903 221.146 39.8227 220.993 39.286C220.84 38.734 220.763 38.159 220.763 37.561V33.766H224.926V37.193C224.926 37.3003 224.964 37.3923 225.041 37.469C225.118 37.5303 225.21 37.561 225.317 37.561H231.136C231.228 37.561 231.312 37.5303 231.389 37.469C231.466 37.3923 231.504 37.3003 231.504 37.193V33.766H235.667V37.193C235.667 37.3003 235.705 37.3923 235.782 37.469C235.859 37.5303 235.951 37.561 236.058 37.561H236.955C237.047 37.561 237.124 37.584 237.185 37.63C237.246 37.6607 237.3 37.745 237.346 37.883C237.392 38.021 237.423 38.2357 237.438 38.527C237.453 38.8183 237.461 39.217 237.461 39.723C237.461 40.2597 237.453 40.6813 237.438 40.988C237.423 41.2947 237.392 41.5247 237.346 41.678C237.3 41.8313 237.246 41.9233 237.185 41.954C237.124 41.9847 237.047 42 236.955 42H236.219C235.682 42 235.199 41.954 234.77 41.862C234.341 41.77 233.965 41.563 233.643 41.241C233.26 41.563 232.884 41.77 232.516 41.862C232.148 41.954 231.811 42 231.504 42H225.064ZM231.504 32.501H224.926V29.35H231.504V32.501ZM238.368 37.561C238.46 37.561 238.544 37.5303 238.621 37.469C238.698 37.3923 238.736 37.3003 238.736 37.193V33.766H242.899V37.561C242.899 38.297 242.792 38.941 242.577 39.493C242.378 40.045 242.094 40.505 241.726 40.873C241.358 41.241 240.913 41.5247 240.392 41.724C239.886 41.908 239.334 42 238.736 42H236.965C236.873 42 236.796 41.9847 236.735 41.954C236.658 41.9233 236.605 41.839 236.574 41.701C236.528 41.5477 236.497 41.3253 236.482 41.034C236.467 40.7427 236.459 40.344 236.459 39.838C236.459 39.3013 236.467 38.8797 236.482 38.573C236.497 38.2663 236.528 38.044 236.574 37.906C236.605 37.7527 236.658 37.6607 236.735 37.63C236.796 37.584 236.873 37.561 236.965 37.561H238.368ZM242.922 32.501H238.736V29.35H242.922V32.501ZM244.305 27.97H248.491V42H244.305V27.97ZM254.674 37.239C254.674 37.4537 254.796 37.561 255.042 37.561H255.916C256.008 37.561 256.084 37.584 256.146 37.63C256.222 37.6607 256.276 37.745 256.307 37.883C256.353 38.021 256.383 38.2357 256.399 38.527C256.414 38.8183 256.422 39.217 256.422 39.723C256.422 40.2597 256.414 40.6813 256.399 40.988C256.383 41.2947 256.353 41.5247 256.307 41.678C256.276 41.8313 256.222 41.9233 256.146 41.954C256.084 41.9847 256.008 42 255.916 42H255.548C255.18 42 254.858 41.977 254.582 41.931C254.49 42.6823 254.283 43.38 253.961 44.024C253.639 44.6833 253.225 45.2507 252.719 45.726C252.213 46.2167 251.615 46.6 250.925 46.876C250.25 47.1673 249.514 47.313 248.717 47.313H246.187L245.796 42.897H248.211C249.039 42.897 249.621 42.7283 249.959 42.391C250.311 42.0537 250.488 41.632 250.488 41.126V33.766H254.674V37.239ZM257.44 37.561C257.348 37.3003 257.279 37.0473 257.233 36.802C257.202 36.5567 257.187 36.3113 257.187 36.066C257.187 35.56 257.279 35.0463 257.463 34.525C257.662 33.9883 257.954 33.513 258.337 33.099C258.72 32.6697 259.203 32.317 259.786 32.041C260.384 31.765 261.074 31.627 261.856 31.627C262.515 31.627 263.129 31.719 263.696 31.903C264.263 32.087 264.746 32.3783 265.145 32.777C265.544 33.1757 265.858 33.697 266.088 34.341C266.318 34.985 266.433 35.767 266.433 36.687V37.561C266.433 38.205 266.326 38.7953 266.111 39.332C265.912 39.8687 265.597 40.3363 265.168 40.735C264.739 41.1337 264.194 41.448 263.535 41.678C262.891 41.8927 262.124 42 261.235 42H255.922C255.83 42 255.753 41.9847 255.692 41.954C255.615 41.9233 255.562 41.839 255.531 41.701C255.485 41.5477 255.454 41.3253 255.439 41.034C255.424 40.7427 255.416 40.344 255.416 39.838C255.416 39.3013 255.424 38.8797 255.439 38.573C255.454 38.2663 255.485 38.044 255.531 37.906C255.562 37.7527 255.615 37.6607 255.692 37.63C255.753 37.584 255.83 37.561 255.922 37.561H257.44ZM262.362 37.699C262.439 37.5763 262.477 37.423 262.477 37.239C262.492 37.055 262.5 36.871 262.5 36.687C262.5 36.4263 262.446 36.1963 262.339 35.997C262.247 35.7823 262.048 35.675 261.741 35.675C261.557 35.675 261.404 35.7363 261.281 35.859C261.174 35.9663 261.12 36.112 261.12 36.296C261.12 36.48 261.181 36.6947 261.304 36.94C261.442 37.1853 261.795 37.4383 262.362 37.699ZM263.903 30.362H259.717V27.211H263.903V30.362ZM280.227 41.747C280.227 41.6397 280.188 41.5477 280.112 41.471C280.035 41.3943 279.951 41.356 279.859 41.356H275.42V36.687C275.42 35.997 275.527 35.3683 275.742 34.801C275.956 34.2183 276.255 33.72 276.639 33.306C277.037 32.892 277.52 32.57 278.088 32.34C278.655 32.11 279.284 31.995 279.974 31.995H283.631L283.884 36.296H279.974C279.866 36.296 279.774 36.3343 279.698 36.411C279.636 36.4877 279.606 36.5797 279.606 36.687V37.055H280.365C281.116 37.055 281.745 37.1547 282.251 37.354C282.772 37.5533 283.186 37.8293 283.493 38.182C283.815 38.5193 284.045 38.9333 284.183 39.424C284.321 39.8993 284.39 40.4207 284.39 40.988C284.39 41.816 284.229 42.598 283.907 43.334C283.6 44.07 283.163 44.714 282.596 45.266C282.028 45.818 281.346 46.255 280.549 46.577C279.767 46.899 278.9 47.06 277.95 47.06H276.294C275.343 47.06 274.492 46.9143 273.741 46.623C273.005 46.3317 272.376 45.91 271.855 45.358C271.333 44.8213 270.935 44.162 270.659 43.38C270.383 42.598 270.245 41.7163 270.245 40.735V35.928H274.408V40.85C274.408 41.4327 274.576 41.8773 274.914 42.184C275.251 42.4907 275.795 42.644 276.547 42.644H278.203C278.969 42.644 279.498 42.5597 279.79 42.391C280.081 42.2223 280.227 42.0077 280.227 41.747ZM291.218 37.561C291.31 37.561 291.387 37.584 291.448 37.63C291.525 37.6607 291.579 37.745 291.609 37.883C291.655 38.021 291.686 38.2357 291.701 38.527C291.717 38.8183 291.724 39.217 291.724 39.723C291.724 40.2597 291.717 40.6813 291.701 40.988C291.686 41.2947 291.655 41.5247 291.609 41.678C291.579 41.8313 291.525 41.9233 291.448 41.954C291.387 41.9847 291.31 42 291.218 42H290.091C289.294 42 288.619 41.885 288.067 41.655C287.531 41.4097 287.094 41.0877 286.756 40.689C286.419 40.2903 286.174 39.8227 286.02 39.286C285.867 38.734 285.79 38.159 285.79 37.561V27.97H289.976V37.193C289.976 37.4383 290.099 37.561 290.344 37.561H291.218ZM292.611 37.561C292.519 37.3157 292.473 36.94 292.473 36.434C292.473 35.8973 292.588 35.376 292.818 34.87C293.048 34.3487 293.37 33.8887 293.784 33.49C294.198 33.076 294.696 32.7463 295.279 32.501C295.877 32.2557 296.544 32.133 297.28 32.133C297.694 32.133 298.062 32.1867 298.384 32.294L300.707 29.994L305.307 34.87C305.828 35.422 306.181 35.9587 306.365 36.48C306.549 36.986 306.641 37.4767 306.641 37.952C306.641 38.5193 306.541 39.0483 306.342 39.539C306.143 40.0297 305.851 40.459 305.468 40.827C305.085 41.195 304.617 41.4863 304.065 41.701C303.528 41.9003 302.915 42 302.225 42H299.442C298.921 42 298.438 41.9923 297.993 41.977C297.564 41.9463 297.157 41.8697 296.774 41.747C296.268 41.8697 295.731 41.9463 295.164 41.977C294.597 41.9923 294.121 42 293.738 42H291.208C291.116 42 291.039 41.9847 290.978 41.954C290.901 41.9233 290.848 41.839 290.817 41.701C290.771 41.5477 290.74 41.3253 290.725 41.034C290.71 40.7427 290.702 40.344 290.702 39.838C290.702 39.3013 290.71 38.8797 290.725 38.573C290.74 38.2663 290.771 38.044 290.817 37.906C290.848 37.7527 290.901 37.6607 290.978 37.63C291.039 37.584 291.116 37.561 291.208 37.561H292.611ZM296.843 37.699C297.042 37.5763 297.203 37.423 297.326 37.239C297.464 37.0397 297.533 36.8097 297.533 36.549C297.533 36.365 297.472 36.1963 297.349 36.043C297.226 35.8897 297.058 35.813 296.843 35.813C296.628 35.813 296.46 35.8897 296.337 36.043C296.214 36.1963 296.153 36.365 296.153 36.549C296.153 36.8097 296.214 37.0397 296.337 37.239C296.475 37.423 296.644 37.5763 296.843 37.699ZM302.34 37.239C302.34 37.1777 302.325 37.124 302.294 37.078C302.263 37.0167 302.21 36.94 302.133 36.848C302.056 36.756 301.941 36.641 301.788 36.503C301.635 36.3497 301.443 36.158 301.213 35.928V36.066C301.213 36.3727 301.182 36.6563 301.121 36.917C301.075 37.1623 301.021 37.377 300.96 37.561H301.834C302.033 37.561 302.164 37.538 302.225 37.492C302.302 37.4307 302.34 37.3463 302.34 37.239ZM310.45 37.561C310.45 36.8097 310.603 36.1043 310.91 35.445C311.216 34.7703 311.692 34.042 312.336 33.26L311.37 32.248L314.314 29.35C315.494 30.4233 316.445 31.3587 317.166 32.156C317.886 32.938 318.438 33.6433 318.822 34.272C319.22 34.8853 319.481 35.4527 319.604 35.974C319.742 36.4953 319.811 37.0243 319.811 37.561C319.811 38.205 319.688 38.7953 319.443 39.332C319.197 39.8687 318.86 40.3363 318.431 40.735C318.017 41.1337 317.511 41.448 316.913 41.678C316.33 41.8927 315.694 42 315.004 42C314.314 42 313.685 41.8927 313.118 41.678C312.55 41.4633 312.067 41.1643 311.669 40.781C311.285 40.3977 310.986 39.9377 310.772 39.401C310.557 38.849 310.45 38.2357 310.45 37.561ZM315.878 37.147C315.878 36.7177 315.625 36.273 315.119 35.813C314.613 36.3037 314.36 36.7483 314.36 37.147C314.36 37.5917 314.613 37.814 315.119 37.814C315.625 37.814 315.878 37.5917 315.878 37.147ZM325.628 40.988C325.628 41.8467 325.482 42.6593 325.191 43.426C324.899 44.1927 324.493 44.8597 323.972 45.427C323.45 46.0097 322.822 46.4697 322.086 46.807C321.365 47.1443 320.56 47.313 319.671 47.313H317.141L316.75 42.897H319.165C319.993 42.897 320.575 42.7283 320.913 42.391C321.265 42.0537 321.442 41.632 321.442 41.126V33.766H325.628V40.988ZM336.505 41.494C336.505 42.506 336.359 43.3953 336.068 44.162C335.792 44.944 335.393 45.5957 334.872 46.117C334.351 46.6383 333.73 47.0293 333.009 47.29C332.304 47.566 331.529 47.704 330.686 47.704H327.259L327.006 43.265H330.939C331.445 43.265 331.798 43.1653 331.997 42.966C332.212 42.7667 332.319 42.4447 332.319 42H331.951C331 42 330.218 41.8927 329.605 41.678C328.992 41.4633 328.509 41.1643 328.156 40.781C327.819 40.3823 327.581 39.8993 327.443 39.332C327.32 38.7647 327.259 38.136 327.259 37.446C327.259 36.7867 327.359 36.158 327.558 35.56C327.757 34.962 328.049 34.4407 328.432 33.996C328.831 33.536 329.314 33.1757 329.881 32.915C330.448 32.639 331.092 32.501 331.813 32.501C332.442 32.501 333.04 32.593 333.607 32.777C334.174 32.961 334.673 33.26 335.102 33.674C335.531 34.0727 335.869 34.594 336.114 35.238C336.375 35.8667 336.505 36.641 336.505 37.561V41.494ZM331.192 37.17C331.192 37.4153 331.238 37.607 331.33 37.745C331.422 37.883 331.629 37.952 331.951 37.952H332.572V37.308C332.572 36.7253 332.334 36.434 331.859 36.434C331.414 36.434 331.192 36.6793 331.192 37.17ZM339.786 32.892L342.937 29.856L346.985 34.801C347.568 35.491 347.943 36.112 348.112 36.664C348.296 37.216 348.388 37.7297 348.388 38.205C348.388 38.7263 348.296 39.217 348.112 39.677C347.943 40.137 347.683 40.5433 347.33 40.896C346.977 41.2333 346.525 41.5017 345.973 41.701C345.436 41.9003 344.8 42 344.064 42H337.992L337.624 37.561H342.937C343.182 37.561 343.305 37.4613 343.305 37.262C343.305 37.124 343.221 36.9477 343.052 36.733L339.786 32.892Z" fill="#444444"/>
</svg>
