<svg xmlns="http://www.w3.org/2000/svg" id="ic_mentor" width="48" height="48" viewBox="0 0 48 48"><rect id="Rectangle_140827" data-name="Rectangle 140827" width="48" height="48" fill="none"/><g id="Add_User" data-name="Add User" transform="translate(4 5)"><path id="Stroke_1" data-name="Stroke 1" d="M14.8,0C6.819,0,0,1.207,0,6.042s6.775,6.086,14.8,6.086c7.984,0,14.8-1.209,14.8-6.042S22.831,0,14.8,0Z" transform="translate(0 25.872)" fill="none" stroke="#733dd8" stroke-linecap="round" stroke-linejoin="round" stroke-miterlimit="10" stroke-width="3"/><path id="Stroke_3" data-name="Stroke 3" d="M9.488,18.976A9.488,9.488,0,1,0,0,9.488,9.454,9.454,0,0,0,9.488,18.976Z" transform="translate(5.315)" fill="none" stroke="#733dd8" stroke-linecap="round" stroke-linejoin="round" stroke-miterlimit="10" stroke-width="3"/><path id="Star" d="M6.45.278,7.913,3.22a.5.5,0,0,0,.379.276l3.274.473a.5.5,0,0,1,.333.193.486.486,0,0,1-.054.652L9.472,7.109a.481.481,0,0,0-.143.443L9.9,10.79a.5.5,0,0,1-.412.563A.548.548,0,0,1,9.16,11.3L6.244,9.774a.49.49,0,0,0-.469,0L2.838,11.311a.513.513,0,0,1-.68-.208.5.5,0,0,1-.051-.316l.568-3.238a.5.5,0,0,0-.143-.442L.147,4.812a.5.5,0,0,1,0-.7l0,0a.574.574,0,0,1,.285-.14l3.275-.473a.513.513,0,0,0,.379-.277L5.547.278A.5.5,0,0,1,5.836.026a.5.5,0,0,1,.385.028A.518.518,0,0,1,6.45.278Z" transform="translate(28.25 10.346)" fill="none" stroke="#ffba21" stroke-linecap="round" stroke-linejoin="round" stroke-miterlimit="10" stroke-width="2"/></g></svg>


