<svg xmlns="http://www.w3.org/2000/svg" id="ic_quality_large" width="48" height="48" viewBox="0 0 48 48"><rect id="Rectangle_140666" data-name="Rectangle 140666" width="48" height="48" fill="none"/><g id="Iconly_Two-tone_Shield_Done" data-name="Iconly/Two-tone/Shield Done" transform="translate(8.5 5.498)"><g id="Shield_Done" data-name="Shield Done"><path id="Stroke_1" data-name="Stroke 1" d="M29.23,4.749A2.177,2.177,0,0,1,30.688,6.8V20.351a15.563,15.563,0,0,1-3.806,10.2,15.543,15.543,0,0,1-4.41,3.4l-7.116,3.844L8.228,33.945a15.533,15.533,0,0,1-4.416-3.4A15.566,15.566,0,0,1,0,20.343V6.8A2.177,2.177,0,0,1,1.458,4.749L14.622.123a2.181,2.181,0,0,1,1.444,0Z" fill="none" stroke="#733dd8" stroke-linecap="round" stroke-linejoin="round" stroke-miterlimit="10" stroke-width="3"/><path id="Stroke_3" data-name="Stroke 3" d="M0,4.01,3.784,7.8,11.58,0" transform="translate(10.145 14.327)" fill="none" stroke="#ffba21" stroke-linecap="round" stroke-linejoin="round" stroke-miterlimit="10" stroke-width="3"/></g></g></svg>

