<svg width="48" height="48" viewBox="0 0 48 48" fill="none" xmlns="http://www.w3.org/2000/svg">
<path d="M23.48 16.9995V26.3003L29.8999 30.2417" stroke="#FFB121" stroke-width="3" stroke-linecap="round" stroke-linejoin="round"/>
<path d="M32.5991 8.59556C11.8701 0.71256 0.0160356 22.1012 10.372 36.1952" stroke="#733DD8" stroke-width="3" stroke-linecap="round"/>
<path d="M5.41188 35.7859C5.10319 35.7923 4.809 35.9181 4.59114 36.1369C4.37329 36.3557 4.24874 36.6504 4.24368 36.9591C4.23863 37.2678 4.35345 37.5665 4.56403 37.7923C4.7746 38.0181 5.06452 38.1534 5.37283 38.1699L11.6915 38.1817C11.8482 38.1844 12.004 38.1563 12.1498 38.0988C12.2957 38.0413 12.4288 37.9556 12.5415 37.8467C12.6542 37.7377 12.7443 37.6076 12.8067 37.4638C12.8691 37.32 12.9026 37.1653 12.9052 37.0085L14.1739 30.4234C14.1793 30.1071 14.0587 29.8016 13.8389 29.5741C13.619 29.3466 13.3178 29.2158 13.0015 29.2104C12.7783 29.195 12.5567 29.2583 12.3754 29.3893C12.1941 29.5204 12.0644 29.7109 12.0091 29.9277L10.6587 35.7392L5.41188 35.7859Z" fill="#FFB121" stroke="#FFB121" stroke-width="0.5" stroke-miterlimit="10"/>
<path d="M15.9999 40.246C36.7289 48.129 48.583 26.7404 38.227 12.6464" stroke="#733DD8" stroke-width="3" stroke-linecap="round"/>
<path d="M43.2038 13.0443C43.5203 13.0497 43.826 12.9291 44.0536 12.7091C44.2812 12.4891 44.4121 12.1877 44.4175 11.8712C44.4229 11.5546 44.3023 11.249 44.0823 11.0213C43.8623 10.7937 43.5608 10.6629 43.2443 10.6575L36.9257 10.6457C36.7689 10.643 36.6132 10.6711 36.4673 10.7286C36.3215 10.7861 36.1884 10.8718 36.0757 10.9808C35.963 11.0897 35.8728 11.2198 35.8104 11.3636C35.748 11.5074 35.7146 11.6621 35.712 11.8189L34.4445 18.4097C34.4392 18.726 34.5597 19.0315 34.7796 19.259C34.9995 19.4864 35.3007 19.6173 35.617 19.6227C35.8399 19.6372 36.0609 19.5732 36.2415 19.4417C36.4222 19.3103 36.5511 19.1198 36.6059 18.9032L37.9563 13.0917L43.2038 13.0443Z" fill="#FFB121" stroke="#FFB121" stroke-width="0.5" stroke-miterlimit="10"/>
</svg>
